<svg width="177" height="48" viewBox="0 0 177 48" fill="none" xmlns="http://www.w3.org/2000/svg">
<path d="M10.2344 38H1.95312V9.81641H21.7578V16.3984H10.2344V21.8086H20.6641V28.0195H10.2344V38ZM47.2305 16.4375V38H39.418V33.7617H39.2617C38.819 35.2591 38.0833 36.4115 37.0547 37.2188C36.0391 38.026 34.7435 38.4297 33.168 38.4297C30.7982 38.4297 28.8646 37.7005 27.3672 36.2422C25.8828 34.7708 25.1406 32.7786 25.1406 30.2656V16.4375H33.1484V28.4688C33.1484 29.5885 33.4284 30.4544 33.9883 31.0664C34.5482 31.6654 35.3034 31.9648 36.2539 31.9648C37.1523 31.9648 37.8685 31.6458 38.4023 31.0078C38.9492 30.3698 39.2227 29.5299 39.2227 28.4883V16.4375H47.2305ZM51.2383 38V16.4375H59.0508V20.6758H59.207C60.0143 17.6419 61.694 16.125 64.2461 16.125C64.9362 16.125 65.5612 16.2292 66.1211 16.4375V23.1562C65.418 22.8568 64.6432 22.707 63.7969 22.707C60.763 22.707 59.2461 24.224 59.2461 27.2578V38H51.2383ZM69.0352 38V16.4375H76.8477V20.6758H77.0039C77.5508 19.1523 78.3841 17.9935 79.5039 17.1992C80.6237 16.4049 81.9974 16.0078 83.625 16.0078C86.0339 16.0078 87.8828 16.724 89.1719 18.1562C90.474 19.5755 91.125 21.5872 91.125 24.1914V38H83.1172V25.9688C83.1172 24.862 82.8568 24.0026 82.3359 23.3906C81.8281 22.7786 81.0794 22.4727 80.0898 22.4727C79.1523 22.4727 78.4102 22.7982 77.8633 23.4492C77.3164 24.0872 77.043 24.9206 77.043 25.9492V38H69.0352ZM95.0352 38V16.4375H103.043V38H95.0352ZM101.871 14.1719C101.116 14.888 100.172 15.2461 99.0391 15.2461C97.9062 15.2461 96.9557 14.888 96.1875 14.1719C95.4323 13.4427 95.0547 12.5378 95.0547 11.457C95.0547 10.3763 95.4323 9.47786 96.1875 8.76172C96.9557 8.03255 97.9062 7.66797 99.0391 7.66797C100.172 7.66797 101.116 8.03255 101.871 8.76172C102.639 9.47786 103.023 10.3763 103.023 11.457C103.023 12.5378 102.639 13.4427 101.871 14.1719ZM129.043 16.4375V38H121.23V33.7617H121.074C120.632 35.2591 119.896 36.4115 118.867 37.2188C117.852 38.026 116.556 38.4297 114.98 38.4297C112.611 38.4297 110.677 37.7005 109.18 36.2422C107.695 34.7708 106.953 32.7786 106.953 30.2656V16.4375H114.961V28.4688C114.961 29.5885 115.241 30.4544 115.801 31.0664C116.361 31.6654 117.116 31.9648 118.066 31.9648C118.965 31.9648 119.681 31.6458 120.215 31.0078C120.762 30.3698 121.035 29.5299 121.035 28.4883V16.4375H129.043ZM134.984 11.7109H142.992V16.4375H146.781V22.2383H142.992V30.207C142.992 31.5742 143.799 32.2578 145.414 32.2578C145.935 32.2578 146.391 32.2253 146.781 32.1602V37.707C145.831 37.9023 144.73 38 143.48 38C140.447 38 138.272 37.5312 136.957 36.5938C135.642 35.6562 134.984 34.1198 134.984 31.9844V22.2383H132.133V16.4375H134.984V11.7109ZM150.418 38V16.4375H158.23V20.6758H158.387C159.194 17.6419 160.874 16.125 163.426 16.125C164.116 16.125 164.741 16.2292 165.301 16.4375V23.1562C164.598 22.8568 163.823 22.707 162.977 22.707C159.943 22.707 158.426 24.224 158.426 27.2578V38H150.418ZM173.273 37.082C172.479 37.8763 171.522 38.2734 170.402 38.2734C169.283 38.2734 168.326 37.8763 167.531 37.082C166.737 36.2878 166.34 35.3307 166.34 34.2109C166.34 33.0911 166.737 32.1341 167.531 31.3398C168.326 30.5456 169.283 30.1484 170.402 30.1484C171.522 30.1484 172.479 30.5456 173.273 31.3398C174.068 32.1341 174.465 33.0911 174.465 34.2109C174.465 35.3307 174.068 36.2878 173.273 37.082Z" fill="#282A30"/>
</svg>
